<svg xmlns="http://www.w3.org/2000/svg" width="512" height="512" viewBox="0 0 512 512">
<defs>
  <linearGradient id="g" x1="0" y1="0" x2="0" y2="1">
    <stop offset="0" stop-color="#FFC21A"/>
    <stop offset="0.52" stop-color="#FFAD0A"/>
    <stop offset="1" stop-color="#FF8A00"/>
  </linearGradient>
  <filter id="s" x="-30%" y="-30%" width="160%" height="170%" color-interpolation-filters="sRGB">
    <feDropShadow dx="0" dy="7" stdDeviation="7" flood-color="#7A3D00" flood-opacity=".24"/>
  </filter>
</defs>
<rect width="512" height="512" fill="#fff"/>
<g transform="matrix(0.433439 0 0 0.433439 -22.918 -16.417)" fill="url(#g)" fill-rule="evenodd" filter="url(#s)">
  <path d="M172,245L172,252L400,728L517,986L525,999L529,1013L530,1011L539,1013L550,981L554,978L558,963L561,962L565,947L574,932L574,926L578,923L577,920L585,907L584,904L594,886L598,871L604,863L614,835L617,833L621,819L637,787L637,782L650,757L650,752L657,741L659,731L685,676L688,661L688,376L692,373L853,375L881,382L907,394L932,412L955,439L976,484L983,526L982,553L973,590L957,623L936,650L906,674L870,690L836,696L763,696L749,703L740,715L693,819L694,828L701,824L713,828L849,826L857,828L861,825L903,819L914,813L922,813L941,806L979,786L1017,757L1054,717L1086,666L1104,618L1115,555L1114,492L1102,435L1076,375L1050,337L1010,297L963,267L920,251L876,243L545,243L542,246L541,314L542,670L538,673L355,245L352,243L175,243ZM772,438L759,441L753,447L750,455L750,616L755,626L763,631L781,628L798,614L898,552L904,551L912,540L912,528L905,518Z"/>
</g>
<g transform="matrix(0.433439 0 0 0.433439 -22.918 -16.417)" fill="none" stroke="#FFD35A" stroke-width="3" stroke-linejoin="round" opacity=".72">
  <path d="M172,245L172,252L400,728L517,986L525,999L529,1013L530,1011L539,1013L550,981L554,978L558,963L561,962L565,947L574,932L574,926L578,923L577,920L585,907L584,904L594,886L598,871L604,863L614,835L617,833L621,819L637,787L637,782L650,757L650,752L657,741L659,731L685,676L688,661L688,376L692,373L853,375L881,382L907,394L932,412L955,439L976,484L983,526L982,553L973,590L957,623L936,650L906,674L870,690L836,696L763,696L749,703L740,715L693,819L694,828L701,824L713,828L849,826L857,828L861,825L903,819L914,813L922,813L941,806L979,786L1017,757L1054,717L1086,666L1104,618L1115,555L1114,492L1102,435L1076,375L1050,337L1010,297L963,267L920,251L876,243L545,243L542,246L541,314L542,670L538,673L355,245L352,243L175,243ZM772,438L759,441L753,447L750,455L750,616L755,626L763,631L781,628L798,614L898,552L904,551L912,540L912,528L905,518Z"/>
</g>
</svg>